<svg xmlns="http://www.w3.org/2000/svg" width="34.331" height="31.096" viewBox="0 0 34.331 31.096">
  <path id="Icon_weather-direction-down-right" data-name="Icon weather-direction-down-right" d="M12.048,14.05a3.065,3.065,0,0,1,.9-2.288,4.018,4.018,0,0,1,2.734-.878,3.533,3.533,0,0,1,2.526.878L39.146,30.726V24.614a3.04,3.04,0,0,1,1.038-2.351,3.721,3.721,0,0,1,2.6-.94,3.58,3.58,0,0,1,2.561.972,3.087,3.087,0,0,1,1.038,2.351V38.688a3.04,3.04,0,0,1-1.038,2.351,3.694,3.694,0,0,1-2.561.94h-15.5a3.694,3.694,0,0,1-2.561-.94,3.04,3.04,0,0,1-1.038-2.351A2.912,2.912,0,0,1,24.714,36.4a3.822,3.822,0,0,1,2.561-.909h6.679l-21.041-19A3.879,3.879,0,0,1,12.048,14.05Z" transform="translate(-12.048 -10.884)"/>
</svg>
