<svg xmlns="http://www.w3.org/2000/svg" width="29.829" height="31.201" viewBox="0 0 29.829 31.201">
  <path id="Icon_weather-direction-down" data-name="Icon weather-direction-down" d="M14.124,32.739a1.951,1.951,0,0,0,1.154,1.7l11.082,7.554a4.666,4.666,0,0,0,2.678.709,4.968,4.968,0,0,0,2.724-.709l11.082-7.554a1.949,1.949,0,0,0,1.108-1.7,2.161,2.161,0,0,0-1.062-1.757,4.365,4.365,0,0,0-2.586-.709,4.755,4.755,0,0,0-2.632.709l-4.895,3.237V13.9a2.028,2.028,0,0,0-1.108-1.727,4.9,4.9,0,0,0-2.632-.678,4.907,4.907,0,0,0-2.678.678A2.028,2.028,0,0,0,25.252,13.9V34.219l-4.895-3.237a4.412,4.412,0,0,0-2.54-.709,4.755,4.755,0,0,0-2.632.709A2.12,2.12,0,0,0,14.124,32.739Z" transform="translate(-14.124 -11.496)"/>
</svg>
