<svg xmlns="http://www.w3.org/2000/svg" width="33.435" height="35.027" viewBox="0 0 33.435 35.027">
  <path id="Icon_weather-direction-left" data-name="Icon weather-direction-left" d="M8.508,29.411A5.875,5.875,0,0,0,9.29,32.6l8.116,12.992a2.09,2.09,0,0,0,1.8,1.317,2.236,2.236,0,0,0,1.881-1.213,6.4,6.4,0,0,0,0-6.132L17.617,33.88H39.386A2.1,2.1,0,0,0,41.225,32.6a6.275,6.275,0,0,0,.719-3.118,6.275,6.275,0,0,0-.719-3.118,2.253,2.253,0,0,0-1.839-1.351H17.617l3.466-5.751a5.649,5.649,0,0,0,.782-2.98,5.664,5.664,0,0,0-.782-3.084,2.323,2.323,0,0,0-1.9-1.317c-.676,0-1.289.485-1.8,1.42L9.269,26.293A5.979,5.979,0,0,0,8.508,29.411Z" transform="translate(-8.508 -11.88)"/>
</svg>
