<svg xmlns="http://www.w3.org/2000/svg" width="38.008" height="29.297" viewBox="0 0 38.008 29.297">
  <path id="Icon_weather-direction-right" data-name="Icon weather-direction-right" d="M11.928,27.83a4.017,4.017,0,0,1,.863-2.585,2.3,2.3,0,0,1,2.1-.907H39.58l-3.865-4.9a4.03,4.03,0,0,1,0-5.079,2.671,2.671,0,0,1,2.176-1.043,2.542,2.542,0,0,1,1.989,1.224l9.192,10.928a3.938,3.938,0,0,1,.863,2.63,4.2,4.2,0,0,1-.9,2.63L39.768,41.57a2.338,2.338,0,0,1-2.026,1.043,2.637,2.637,0,0,1-2.139-1,3.7,3.7,0,0,1-.863-2.539,3.93,3.93,0,0,1,.863-2.585l3.977-4.9H14.855a2.7,2.7,0,0,1-2.1-1.134A4.3,4.3,0,0,1,11.928,27.83Z" transform="translate(-11.928 -13.319)"/>
</svg>
