<svg xmlns="http://www.w3.org/2000/svg" width="34.817" height="33.435" viewBox="0 0 34.817 33.435">
  <path id="Icon_weather-direction-up-left" data-name="Icon weather-direction-up-left" d="M12.036,29.172V14.091a3.36,3.36,0,0,1,1.056-2.53A3.64,3.64,0,0,1,15.7,10.548H31.469a3.64,3.64,0,0,1,2.605,1.012,3.36,3.36,0,0,1,1.056,2.53,3.266,3.266,0,0,1-1.056,2.463,3.612,3.612,0,0,1-2.605.978H24.6L45.937,37.978a3.722,3.722,0,0,1,.915,2.632,3.433,3.433,0,0,1-.915,2.429,3.943,3.943,0,0,1-2.781.945,3.476,3.476,0,0,1-2.57-.945L19.394,22.627v6.579a3.36,3.36,0,0,1-1.056,2.53,3.665,3.665,0,0,1-2.64,1.012A3.532,3.532,0,0,1,13.092,31.7,3.466,3.466,0,0,1,12.036,29.172Z" transform="translate(-12.036 -10.548)"/>
</svg>
