<svg xmlns="http://www.w3.org/2000/svg" width="35.824" height="32.569" viewBox="0 0 35.824 32.569">
  <path id="Icon_weather-direction-up-right" data-name="Icon weather-direction-up-right" d="M12.06,39.629a3.22,3.22,0,0,0,.94,2.4,4.186,4.186,0,0,0,2.856.92,3.682,3.682,0,0,0,2.639-.92L40.328,22.145v6.409a3.193,3.193,0,0,0,1.084,2.465A3.878,3.878,0,0,0,44.124,32,3.732,3.732,0,0,0,46.8,30.986a3.242,3.242,0,0,0,1.084-2.465V13.831A3.193,3.193,0,0,0,46.8,11.366a3.85,3.85,0,0,0-2.675-.986H27.857a3.7,3.7,0,0,0-2.639.986,3.236,3.236,0,0,0-1.048,2.465,3.145,3.145,0,0,0,1.048,2.4,3.824,3.824,0,0,0,2.639.953h7.049L13,37.1A3.7,3.7,0,0,0,12.06,39.629Z" transform="translate(-12.06 -10.38)"/>
</svg>
