<svg xmlns="http://www.w3.org/2000/svg" width="32.291" height="31.392" viewBox="0 0 32.291 31.392">
  <path id="Icon_weather-direction-up" data-name="Icon weather-direction-up" d="M11.941,17a1.988,1.988,0,0,0,1.085,1.785,4.91,4.91,0,0,0,2.84.714,4.576,4.576,0,0,0,2.808-.734l5.3-3.252V35.941a1.927,1.927,0,0,0,1.149,1.745,5.4,5.4,0,0,0,2.935.674,5.258,5.258,0,0,0,2.84-.634A2.181,2.181,0,0,0,32.17,35.98V15.557L37.4,18.809a5.122,5.122,0,0,0,2.808.734,5.349,5.349,0,0,0,2.872-.714,2.05,2.05,0,0,0,1.149-1.765,2.083,2.083,0,0,0-1.276-1.685L31.021,7.765a6.336,6.336,0,0,0-2.935-.793,5.7,5.7,0,0,0-2.935.813L13.186,15.339A1.918,1.918,0,0,0,11.941,17Z" transform="translate(-11.939 -6.972)"/>
</svg>
